<?xml version="1.0" encoding="UTF-8"?>
<svg version="1.1" xmlns="http://www.w3.org/2000/svg" width="128" height="128">
<path d="M0 0 C42.24 0 84.48 0 128 0 C128 42.24 128 84.48 128 128 C85.76 128 43.52 128 0 128 C0 85.76 0 43.52 0 0 Z " fill="#09090C" transform="translate(0,0)"/>
<path d="M0 0 C1.88700623 -0.00472824 1.88700623 -0.00472824 3.81213379 -0.009552 C5.19571975 -0.00776222 6.5793054 -0.00571127 7.96289062 -0.00341797 C9.37154151 -0.00409106 10.78019229 -0.00506112 12.18884277 -0.00631714 C15.14462385 -0.00779389 18.10037476 -0.0056403 21.05615234 -0.00097656 C24.85288647 0.00472073 28.64954991 0.0014416 32.44628143 -0.00454903 C35.35610491 -0.00815526 38.2659115 -0.00701577 41.17573547 -0.00442123 C42.57603463 -0.00375214 43.9763353 -0.00457979 45.37663269 -0.00690079 C47.33051526 -0.00942829 49.28440318 -0.0048958 51.23828125 0 C52.35223267 0.00079559 53.46618408 0.00159119 54.6138916 0.00241089 C57.11914062 0.12939453 57.11914062 0.12939453 58.11914062 1.12939453 C58.2066227 3.05606961 58.22611397 4.98591314 58.21679688 6.91455078 C58.21196289 8.66928711 58.21196289 8.66928711 58.20703125 10.45947266 C58.19446289 12.30702148 58.19446289 12.30702148 58.18164062 14.19189453 C58.17712891 15.42746094 58.17261719 16.66302734 58.16796875 17.93603516 C58.1561367 21.0005357 58.13965236 24.06494175 58.11914062 27.12939453 C53.36914062 28.25439453 53.36914062 28.25439453 51.11914062 27.12939453 C51.11914062 20.52939453 51.11914062 13.92939453 51.11914062 7.12939453 C44.18914062 7.12939453 37.25914063 7.12939453 30.11914062 7.12939453 C30.25969703 10.90049308 30.40635049 14.67118222 30.55664062 18.44189453 C30.59595703 19.51375 30.63527344 20.58560547 30.67578125 21.68994141 C30.71767578 22.71796875 30.75957031 23.74599609 30.80273438 24.80517578 C30.85772095 26.22697144 30.85772095 26.22697144 30.91381836 27.67749023 C31.0334425 30.26556553 31.0334425 30.26556553 32.11914062 33.12939453 C35.08914062 33.12939453 38.05914062 33.12939453 41.11914062 33.12939453 C41.0959375 32.46552734 41.07273438 31.80166016 41.04882812 31.11767578 C40.86957999 22.34732072 40.86957999 22.34732072 43.11914062 18.12939453 C44.43914062 18.45939453 45.75914063 18.78939453 47.11914062 19.12939453 C47.11914062 24.07939453 47.11914062 29.02939453 47.11914062 34.12939453 C54.37914062 34.12939453 61.63914062 34.12939453 69.11914062 34.12939453 C68.78914063 35.44939453 68.45914063 36.76939453 68.11914062 38.12939453 C61.18914062 38.12939453 54.25914063 38.12939453 47.11914062 38.12939453 C47.17018926 42.34856395 47.2330888 46.56403669 47.32666016 50.78198242 C47.35487244 52.21643136 47.37608586 53.65103582 47.39013672 55.08569336 C47.41156511 57.14924755 47.45820529 59.21093159 47.50976562 61.27392578 C47.53071289 62.51505127 47.55166016 63.75617676 47.57324219 65.03491211 C47.83389842 68.18126005 47.83389842 68.18126005 49.93066406 70.03051758 C53.33251223 71.73865218 56.4487887 71.72340379 60.11914062 71.12939453 C62.7928321 70.21439789 65.34540534 69.16838317 67.91992188 68.00439453 C70.11914062 67.12939453 70.11914062 67.12939453 73.11914062 67.12939453 C72.93164062 69.44189453 72.93164062 69.44189453 72.11914062 72.12939453 C67.76849393 75.65134662 63.17690598 75.85489065 57.80664062 76.31689453 C56.97068359 76.39875 56.13472656 76.48060547 55.2734375 76.56494141 C53.22304674 76.76412222 51.171205 76.94826735 49.11914062 77.12939453 C48.45914063 79.10939453 47.79914063 81.08939453 47.11914062 83.12939453 C32.92914063 83.12939453 18.73914062 83.12939453 4.11914062 83.12939453 C3.78914063 81.80939453 3.45914063 80.48939453 3.11914062 79.12939453 C4.10914063 78.13939453 4.10914063 78.13939453 5.11914062 77.12939453 C10.72914062 77.12939453 16.33914062 77.12939453 22.11914062 77.12939453 C22.11914062 53.69939453 22.11914062 30.26939453 22.11914062 6.12939453 C14.52914062 6.12939453 6.93914063 6.12939453 -0.88085938 6.12939453 C-0.88085938 13.05939453 -0.88085938 19.98939453 -0.88085938 27.12939453 C-2.53085937 27.45939453 -4.18085938 27.78939453 -5.88085938 28.12939453 C-7.65535531 26.35489859 -7.01116009 23.77922192 -7.01367188 21.37939453 C-7.01496094 20.21408203 -7.01625 19.04876953 -7.01757812 17.84814453 C-7.01371094 16.62095703 -7.00984375 15.39376953 -7.00585938 14.12939453 C-7.00972656 12.90220703 -7.01359375 11.67501953 -7.01757812 10.41064453 C-7.01628906 9.24533203 -7.015 8.08001953 -7.01367188 6.87939453 C-7.01254395 5.80173828 -7.01141602 4.72408203 -7.01025391 3.61376953 C-6.76488156 -1.0973796 -4.12502941 0.00294613 0 0 Z " fill="#6B28D4" transform="translate(30.880859375,25.87060546875)"/>
<path d="M0 0 C7.59 0 15.18 0 23 0 C23 6.93 23 13.86 23 21 C22.67 21 22.34 21 22 21 C22 14.4 22 7.8 22 1 C15.07 1 8.14 1 1 1 C1.14055641 4.77109855 1.28720986 8.54178769 1.4375 12.3125 C1.47681641 13.38435547 1.51613281 14.45621094 1.55664062 15.56054688 C1.59853516 16.58857422 1.64042969 17.61660156 1.68359375 18.67578125 C1.72025146 19.62364502 1.75690918 20.57150879 1.79467773 21.5480957 C1.91430187 24.136171 1.91430187 24.136171 3 27 C5.97 27 8.94 27 12 27 C11.97679688 26.33613281 11.95359375 25.67226563 11.9296875 24.98828125 C11.75043937 16.21792619 11.75043937 16.21792619 14 12 C15.32 12.33 16.64 12.66 18 13 C18 17.95 18 22.9 18 28 C25.26 28 32.52 28 40 28 C39.67 29.32 39.34 30.64 39 32 C32.07 32 25.14 32 18 32 C18.05104863 36.21916942 18.11394818 40.43464216 18.20751953 44.65258789 C18.23573182 46.08703683 18.25694524 47.52164129 18.27099609 48.95629883 C18.29242449 51.01985302 18.33906467 53.08153706 18.390625 55.14453125 C18.41157227 56.38565674 18.43251953 57.62678223 18.45410156 58.90551758 C18.7147578 62.05186552 18.7147578 62.05186552 20.81152344 63.90112305 C24.21337161 65.60925765 27.32964808 65.59400926 31 65 C33.67369147 64.08500336 36.22626471 63.03898864 38.80078125 61.875 C41 61 41 61 44 61 C43.8125 63.3125 43.8125 63.3125 43 66 C38.64935331 69.52195209 34.05776535 69.72549611 28.6875 70.1875 C27.85154297 70.26935547 27.01558594 70.35121094 26.15429688 70.43554688 C24.10390612 70.63472769 22.05206438 70.81887282 20 71 C19.67 72.65 19.34 74.3 19 76 C18.34 74.68 17.68 73.36 17 72 C11.39 71.67 5.78 71.34 0 71 C0 47.57 0 24.14 0 0 Z " fill="#131019" transform="translate(60,32)"/>
<path d="M0 0 C1.32 0.33 2.64 0.66 4 1 C4 5.95 4 10.9 4 16 C11.26 16 18.52 16 26 16 C25.67 17.32 25.34 18.64 25 20 C18.07 20 11.14 20 4 20 C4.05104863 24.21916942 4.11394818 28.43464216 4.20751953 32.65258789 C4.23573182 34.08703683 4.25694524 35.52164129 4.27099609 36.95629883 C4.29242449 39.01985302 4.33906467 41.08153706 4.390625 43.14453125 C4.41157227 44.38565674 4.43251953 45.62678223 4.45410156 46.90551758 C4.7147578 50.05186552 4.7147578 50.05186552 6.81152344 51.90112305 C10.21337161 53.60925765 13.32964808 53.59400926 17 53 C19.67369147 52.08500336 22.22626471 51.03898864 24.80078125 49.875 C27 49 27 49 30 49 C29.8125 51.3125 29.8125 51.3125 29 54 C22.77667915 58.84036066 14.55999318 58.75702232 7 58 C3.22538692 56.54211885 1.24958784 54.37438176 -1 51 C-1.22705078 47.8137207 -1.22705078 47.8137207 -1.1953125 43.92578125 C-1.1924826 43.2419487 -1.18965271 42.55811615 -1.18673706 41.8535614 C-1.17555684 39.67302835 -1.15045691 37.49290855 -1.125 35.3125 C-1.11496738 33.83268823 -1.10584202 32.35287001 -1.09765625 30.87304688 C-1.07562481 27.248564 -1.04111002 23.62432234 -1 20 C-4.3 20 -7.6 20 -11 20 C-11 18.68 -11 17.36 -11 16 C-7.7 16 -4.4 16 -1 16 C-1.01160156 14.92878906 -1.02320312 13.85757813 -1.03515625 12.75390625 C-1.04453299 11.35677257 -1.05363331 9.95963701 -1.0625 8.5625 C-1.07506836 7.50192383 -1.07506836 7.50192383 -1.08789062 6.41992188 C-1.09653588 4.61306441 -1.05220011 2.80612397 -1 1 C-0.67 0.67 -0.34 0.34 0 0 Z " fill="#F0EFF0" transform="translate(74,44)"/>
<path d="M0 0 C0.33 0 0.66 0 1 0 C1 23.43 1 46.86 1 71 C2.32 71 3.64 71 5 71 C5.33 47.57 5.66 24.14 6 0 C6.33 0 6.66 0 7 0 C7 23.43 7 46.86 7 71 C12.61 71 18.22 71 24 71 C25 72 25 72 25 77 C10.81 77 -3.38 77 -18 77 C-18.33 75.68 -18.66 74.36 -19 73 C-18.01 72.01 -18.01 72.01 -17 71 C-11.39 71 -5.78 71 0 71 C0 47.57 0 24.14 0 0 Z " fill="#5F23BB" transform="translate(53,32)"/>
<path d="M0 0 C1.11696762 0.00222061 2.23393524 0.00444122 3.38475037 0.00672913 C4.64598221 0.00680466 5.90721405 0.00688019 7.20666504 0.00695801 C8.59341979 0.01206542 9.98017414 0.01728142 11.3669281 0.02259827 C12.77797394 0.0244625 14.18902042 0.02588638 15.60006714 0.02688599 C19.3204272 0.03071072 23.04074845 0.04054062 26.76109314 0.05158997 C30.55482966 0.06180504 34.34857243 0.06638381 38.14231873 0.07142639 C45.59090416 0.08216294 53.03945758 0.09923882 60.48802185 0.12025452 C60.48802185 0.45025452 60.48802185 0.78025452 60.48802185 1.12025452 C40.02802185 1.12025452 19.56802185 1.12025452 -1.51197815 1.12025452 C-1.51197815 2.11025452 -1.51197815 3.10025452 -1.51197815 4.12025452 C-0.52197815 3.79025452 0.46802185 3.46025452 1.48802185 3.12025452 C2.35765272 6.11732146 2.60565284 8.76981977 2.5856781 11.88587952 C2.58245544 12.77533264 2.57923279 13.66478577 2.57591248 14.58119202 C2.56753357 15.50158264 2.55915466 16.42197327 2.55052185 17.37025452 C2.54601013 18.30611389 2.54149841 19.24197327 2.53684998 20.20619202 C2.52509103 22.51094493 2.50865611 24.81556678 2.48802185 27.12025452 C0.83187528 27.50244219 -0.83654839 27.83420553 -2.51197815 28.12025452 C-4.28647409 26.34575858 -3.64227887 23.77008191 -3.64479065 21.37025452 C-3.64607971 20.20494202 -3.64736877 19.03962952 -3.6486969 17.83900452 C-3.64482971 16.61181702 -3.64096252 15.38462952 -3.63697815 14.12025452 C-3.64084534 12.89306702 -3.64471252 11.66587952 -3.6486969 10.40150452 C-3.64740784 9.23619202 -3.64611877 8.07087952 -3.64479065 6.87025452 C-3.64366272 5.79259827 -3.64253479 4.71494202 -3.64137268 3.60462952 C-3.46618705 0.24106535 -3.36711263 0.16119189 0 0 Z " fill="#6828CE" transform="translate(27.511978149414063,25.879745483398438)"/>
<path d="M0 0 C0.33 0 0.66 0 1 0 C1 24.09 1 48.18 1 73 C-15 74 -15 74 -17 73 C-17 73.99 -17 74.98 -17 76 C-3.47 76 10.06 76 24 76 C24.495 74.02 24.495 74.02 25 72 C25 73.65 25 75.3 25 77 C10.81 77 -3.38 77 -18 77 C-18.33 75.68 -18.66 74.36 -19 73 C-18.01 72.01 -18.01 72.01 -17 71 C-11.39 71 -5.78 71 0 71 C0 47.57 0 24.14 0 0 Z " fill="#51239D" transform="translate(53,32)"/>
<path d="M0 0 C0.33 0 0.66 0 1 0 C1 8.25 1 16.5 1 25 C4.27773504 24.24849977 4.27773504 24.24849977 6 21 C6 22.65 6 24.3 6 26 C4.34385343 26.38218767 2.67542976 26.71395102 1 27 C0 26 0 26 -0.11352539 23.49975586 C-0.10828857 22.41573486 -0.10305176 21.33171387 -0.09765625 20.21484375 C-0.09443359 19.04501953 -0.09121094 17.87519531 -0.08789062 16.66992188 C-0.07951172 15.43822266 -0.07113281 14.20652344 -0.0625 12.9375 C-0.05798828 11.70193359 -0.05347656 10.46636719 -0.04882812 9.19335938 C-0.03699608 6.12885883 -0.02051173 3.06445279 0 0 Z " fill="#5A27AD" transform="translate(24,27)"/>
<path d="M0 0 C5.94 0 11.88 0 18 0 C18 0.66 18 1.32 18 2 C15.3753399 2.19430855 12.75053235 2.38073238 10.125 2.5625 C9.00544922 2.64661133 9.00544922 2.64661133 7.86328125 2.73242188 C2.2265625 3.11328125 2.2265625 3.11328125 0 2 C0 1.34 0 0.68 0 0 Z " fill="#5D27B5" transform="translate(36,103)"/>
<path d="M0 0 C0.99 0.33 1.98 0.66 3 1 C2.34 1.66 1.68 2.32 1 3 C0.53603307 5.89223503 0.53603307 5.89223503 0.375 9.125 C0.30023438 10.22070312 0.22546875 11.31640625 0.1484375 12.4453125 C0.09945312 13.28835937 0.05046875 14.13140625 0 15 C-0.33 15 -0.66 15 -1 15 C-1.02685412 12.68756208 -1.04632841 10.3750373 -1.0625 8.0625 C-1.07410156 6.77472656 -1.08570312 5.48695312 -1.09765625 4.16015625 C-1 1 -1 1 0 0 Z " fill="#D6D6D6" transform="translate(74,44)"/>
</svg>
